<?xml version="1.0" standalone="no"?>
<!DOCTYPE svg PUBLIC "-//W3C//DTD SVG 1.1//EN" "http://www.w3.org/Graphics/SVG/1.1/DTD/svg11.dtd" >
<!--
2013-9-30: Created.
-->
<svg>
<metadata>
Created by iconfont
</metadata>
<defs>

<font id="iconfont" horiz-adv-x="1024" >
  <font-face
    font-family="iconfont"
    font-weight="500"
    font-stretch="normal"
    units-per-em="1024"
    ascent="896"
    descent="-128"
  />
    <missing-glyph />
    
    <glyph glyph-name="youwu" unicode="&#58978;" d="M186.181818-104.587636a162.909091 162.909091 0 1 0 0 325.818181h339.781818a244.363636 244.363636 0 1 0 230.4-325.818181z m-81.454545 162.909091a81.454545 81.454545 0 0 1 81.454545-81.454546h570.181818a162.909091 162.909091 0 1 1-153.6 217.204364l-19.176727-54.341818H186.181818A81.454545 81.454545 0 0 1 104.727273 58.181818z m-40.727273 244.363636a40.727273 40.727273 0 1 0 0 81.454545h325.818182a40.727273 40.727273 0 1 0 0-81.454545z m0 162.909091a40.727273 40.727273 0 1 0 0 81.454545h896a40.727273 40.727273 0 0 0 0-81.454545z m0 162.909091a40.727273 40.727273 0 0 0 0 81.454545h896a40.727273 40.727273 0 0 0 0-81.454545z m0 162.909091a40.727273 40.727273 0 1 0 0 81.454545h896a40.727273 40.727273 0 0 0 0-81.454545z"  horiz-adv-x="1024" />

    
    <glyph glyph-name="yintian" unicode="&#58979;" d="M425.751273 13.288727a167.563636 167.563636 0 0 0-112.802909 43.636364h-86.109091a233.355636 233.355636 0 0 0-38.539637 462.219636 338.548364 338.548364 0 0 0 642.117819 9.751273 262.656 262.656 0 0 0-63.418182-515.607273z m-85.271273 174.545455a86.295273 86.295273 0 0 1 85.271273-87.296h341.061818a171.985455 171.985455 0 0 1 169.332364 154.903273 174.289455 174.289455 0 0 1-131.141819 189.835636 169.890909 169.890909 0 0 1-199.074909-111.918546l-20.061091-58.181818h-160.116363a86.272 86.272 0 0 1-85.271273-87.319272z m-71.586909 303.034182l-16.290909-49.058909-49.966546-8.727273a145.780364 145.780364 0 0 1 24.203637-288.907637H260.654545a178.827636 178.827636 0 0 0-5.376 43.659637 172.590545 172.590545 0 0 0 170.542546 174.545454h99.793454a257.582545 257.582545 0 0 0 208.267637 172.427637 253.672727 253.672727 0 0 1-464.942546-43.962182z"  horiz-adv-x="1024" />

    
    <glyph glyph-name="qingtian" unicode="&#58982;" d="M511.697455 148.619636a235.822545 235.822545 0 1 1-236.171637 235.822546 235.985455 235.985455 0 0 1 236.171637-235.822546z m0-78.615272a314.437818 314.437818 0 1 0 314.903272 314.437818 314.647273 314.647273 0 0 0-314.903272-314.437818zM472.343273 856.087273a39.354182 39.354182 0 0 0 78.708363 0v-78.615273a39.354182 39.354182 0 0 0-78.708363 0z m0-864.674909a39.354182 39.354182 0 0 0 78.708363 0v-78.615273a39.354182 39.354182 0 0 0-78.708363 0zM817.850182 745.751273a39.330909 39.330909 0 1 0 55.645091-55.575273l-55.645091-55.575273a39.330909 39.330909 0 0 0-55.668364 55.575273zM205.544727 134.330182a39.330909 39.330909 0 1 0 55.645091-55.575273l-55.645091-55.575273a39.330909 39.330909 0 0 0-55.668363 55.575273z m0 611.421091A39.330909 39.330909 0 1 1 149.876364 690.176l55.668363-55.575273a39.330909 39.330909 0 0 1 55.645091 55.575273z m612.305455-611.421091a39.330909 39.330909 0 1 1-55.668364-55.575273l55.668364-55.575273a39.330909 39.330909 0 0 1 55.645091 55.575273z m166.190545 289.442909a39.307636 39.307636 0 1 0 0-78.615273h-78.708363a39.307636 39.307636 0 1 0 0 78.615273z m-865.954909 0a39.307636 39.307636 0 1 0 0-78.615273H39.354182a39.307636 39.307636 0 1 0 0 78.615273z m0 0"  horiz-adv-x="1024" />

    
    <glyph glyph-name="baoyu" unicode="&#58983;" d="M820.473716 581.026909l-49.966545 8.517818-16.290909 47.848728a256 256 0 0 1-484.235637 0l-16.290909-47.848728-49.966545-8.517818a141.963636 141.963636 0 0 1 24.203636-281.739636h568.482909a141.963636 141.963636 0 0 1 24.203637 281.739636z m203.147637-139.869091a227.188364 227.188364 0 0 0-227.351273-227.002182H227.763898A226.978909 226.978909 0 0 0 189.224262 664.925091a341.364364 341.364364 0 0 0 645.562182 0 227.188364 227.188364 0 0 0 188.811636-223.767273zM151.824989 142.475636a42.635636 42.635636 0 0 0 80.919273-26.903272l-42.635637-127.697455a42.635636 42.635636 0 0 0-80.919272 26.903273z m212.782546-1.233454a42.635636 42.635636 0 0 0 81.687272-24.436364l-63.953454-212.829091a42.635636 42.635636 0 0 0-81.687273 24.436364z m213.550545 1.233454a42.635636 42.635636 0 0 0 80.919273-26.903272l-42.635637-127.697455a42.635636 42.635636 0 0 0-80.919272 26.903273z m212.782545-1.233454a42.635636 42.635636 0 0 0 81.687273-24.436364l-63.953454-212.829091a42.635636 42.635636 0 0 0-81.687273 24.436364z m0 0"  horiz-adv-x="1024" />

    
    <glyph glyph-name="bingbao" unicode="&#58984;" d="M796.834909-67.956364l-66.466909 64.930909a9.984 9.984 0 0 0 0 16.29091l66.466909 64.930909a10.565818 10.565818 0 0 0 16.64 0l66.490182-64.930909a10.007273 10.007273 0 0 0 0-16.29091l-66.490182-64.930909a10.565818 10.565818 0 0 0-16.64 0z m-293.771636 0l-66.466909 64.930909a9.984 9.984 0 0 0 0 16.29091l66.466909 64.930909a10.565818 10.565818 0 0 0 16.64 0l66.466909-64.930909a9.984 9.984 0 0 0 0-16.29091l-66.466909-64.930909a10.565818 10.565818 0 0 0-16.64 0z m-293.771637 0l-66.490181 64.930909a10.007273 10.007273 0 0 0 0 16.29091l66.490181 64.930909a10.565818 10.565818 0 0 0 16.64 0l66.466909-64.930909a9.984 9.984 0 0 0 0-16.29091l-66.466909-64.930909a10.565818 10.565818 0 0 0-16.64 0zM0.861091 373.248a228.072727 228.072727 0 0 0 188.276364 244.363636 340.805818 340.805818 0 0 0 645.562181 0A228.258909 228.258909 0 0 0 796.16 164.538182H227.328a227.630545 227.630545 0 0 0-226.490182 208.733091z m268.939636 216.645818l-16.290909-48.081454-49.966545-8.541091a142.731636 142.731636 0 0 1 24.203636-283.182546h568.482909a142.638545 142.638545 0 0 1 24.203637 283.182546l-49.966546 8.541091-16.290909 48.081454a255.650909 255.650909 0 0 1-484.235636 0z"  horiz-adv-x="1024" />

    
    <glyph glyph-name="qingzhuanduoyun" unicode="&#58985;" d="M813.474909-56.715636H288.581818a210.106182 210.106182 0 0 0-76.148363 405.876363 209.943273 209.943273 0 0 0 356.072727 222.370909 315.019636 315.019636 0 0 0 338.897454-230.283636 210.082909 210.082909 0 0 0-93.835636-397.963636zM157.44 153.344a131.258182 131.258182 0 0 1 131.211636-131.281455h524.776728a131.304727 131.304727 0 0 1 58.693818 248.785455l-31.441455 15.802182-9.309091 34.001454a236.194909 236.194909 0 0 1-450.653091 16.523637l-18.618181-52.526546H288.581818a131.234909 131.234909 0 0 1-131.141818-131.304727z m149.085091 210.059636a315.136 315.136 0 0 0 177.943273 186.717091 131.281455 131.281455 0 0 1-187.182546-183.854545l-3.002182-2.792727z m-267.170909 52.526546a39.400727 39.400727 0 0 0 0 78.778182h52.48a39.400727 39.400727 0 0 0 0-78.778182z m539.810909 225.070545a39.400727 39.400727 0 0 0 0 55.691637l37.12 37.236363a39.377455 39.377455 0 0 0 55.645091-55.691636l-37.12-37.236364a39.330909 39.330909 0 0 0-55.645091 0z m-426.775273 0l-37.12 37.236364a39.377455 39.377455 0 1 0 55.645091 55.691636l37.12-37.236363a39.377455 39.377455 0 1 0-55.645091-55.691637z m201.844364 116.363637V809.890909a39.377455 39.377455 0 1 0 78.731636 0v-52.503273a39.377455 39.377455 0 1 0-78.731636 0z"  horiz-adv-x="1024" />

    
    <glyph glyph-name="baoxue" unicode="&#58986;" d="M757.044596-115.549091V-107.054545l-5.934545-6.004364a10.589091 10.589091 0 0 0-10.379636-2.932364 10.752 10.752 0 0 0-7.610182 7.749818 10.914909 10.914909 0 0 0 2.932363 10.519273l5.888 5.981091h-8.354909a10.845091 10.845091 0 0 0 0 21.666909h8.354909l-5.888 5.981091a10.891636 10.891636 0 0 0-3.258181 10.682182 10.775273 10.775273 0 0 0 7.77309 7.889454 10.565818 10.565818 0 0 0 10.519273-3.304727l5.934546-6.004363v8.517818a10.658909 10.658909 0 1 0 21.317818 0v-8.517818l5.934545 6.004363a10.565818 10.565818 0 0 0 10.519273 3.304727 10.798545 10.798545 0 0 0 7.773091-7.889454 10.938182 10.938182 0 0 0-3.258182-10.682182l-5.888-5.981091h8.354909a10.845091 10.845091 0 0 0 0-21.666909h-8.354909l5.888-5.981091a10.845091 10.845091 0 0 0 2.909091-10.519273 10.728727 10.728727 0 0 0-7.586909-7.749818 10.589091 10.589091 0 0 0-10.379636 2.932364l-5.934546 6.004364v-8.517819a10.658909 10.658909 0 1 0-21.317818 0z m-170.542545 0V-107.054545l-5.934546-6.004364a10.565818 10.565818 0 0 0-10.356363-2.932364 10.775273 10.775273 0 0 0-7.610182 7.749818 10.938182 10.938182 0 0 0 2.909091 10.519273l5.888 5.981091h-8.331636a10.845091 10.845091 0 0 0 0 21.666909h8.331636l-5.888 5.981091a10.961455 10.961455 0 0 0-3.234909 10.682182 10.775273 10.775273 0 0 0 7.773091 7.889454 10.565818 10.565818 0 0 0 10.519272-3.304727l5.934546-6.004363v8.517818a10.658909 10.658909 0 1 0 21.317818 0v-8.517818l5.934546 6.004363a10.542545 10.542545 0 0 0 10.519272 3.304727 10.775273 10.775273 0 0 0 7.773091-7.889454 10.938182 10.938182 0 0 0-3.234909-10.682182l-5.888-5.981091h8.354909a10.845091 10.845091 0 0 0 0-21.666909h-8.354909l5.888-5.981091a10.914909 10.914909 0 0 0 2.932364-10.519273 10.752 10.752 0 0 0-7.610182-7.749818 10.565818 10.565818 0 0 0-10.356364 2.932364l-5.934545 6.004364v-8.494546a10.658909 10.658909 0 1 0-21.317818 0z m-170.542546 0V-107.054545l-5.934545-6.004364a10.565818 10.565818 0 0 0-10.356364-2.932364 10.821818 10.821818 0 0 0-7.610181 7.749818 10.961455 10.961455 0 0 0 2.932363 10.519273l5.888 5.981091h-8.354909a10.845091 10.845091 0 0 0 0 21.666909h8.354909l-5.888 5.981091a10.938182 10.938182 0 0 0-3.234909 10.682182 10.775273 10.775273 0 0 0 7.773091 7.889454 10.542545 10.542545 0 0 0 10.519273-3.304727l5.934545-6.004363v8.517818a10.658909 10.658909 0 1 0 21.317818 0v-8.517818l5.934546 6.004363a10.565818 10.565818 0 0 0 10.519273 3.304727 10.775273 10.775273 0 0 0 7.77309-7.889454 10.914909 10.914909 0 0 0-3.234909-10.682182l-5.888-5.981091h8.354909a10.845091 10.845091 0 0 0 0-21.666909h-8.354909l5.888-5.981091a10.938182 10.938182 0 0 0 2.909091-10.519273 10.752 10.752 0 0 0-7.610182-7.749818 10.565818 10.565818 0 0 0-10.356363 2.932364l-5.934546 6.004364v-8.517819a10.658909 10.658909 0 1 0-21.317818 0z m-170.519272 0V-107.054545l-5.934546-6.004364a10.589091 10.589091 0 0 0-10.356363-2.932364 10.752 10.752 0 0 0-7.610182 7.749818 10.938182 10.938182 0 0 0 2.909091 10.519273l5.888 5.981091h-8.354909a10.845091 10.845091 0 0 0 0 21.666909h8.354909l-5.888 5.981091a10.938182 10.938182 0 0 0 0.418909 14.871273 10.519273 10.519273 0 0 0 14.638545 0.395636l5.934546-6.004363v8.517818a10.658909 10.658909 0 1 0 21.294545 0v-8.517818l5.934546 6.004363a10.542545 10.542545 0 0 0 14.638545-0.395636 10.938182 10.938182 0 0 0 0.418909-14.871273l-5.888-5.981091h8.354909a10.845091 10.845091 0 0 0 0-21.666909h-8.354909l5.888-5.981091a10.938182 10.938182 0 0 0 2.909091-10.519273 10.752 10.752 0 0 0-7.610182-7.749818 10.589091 10.589091 0 0 0-10.379636 2.932364l-5.934546 6.004364v-8.517819a10.658909 10.658909 0 1 0-21.294545 0z m596.852363 129.861818v8.517818l-5.934545-6.004363a10.565818 10.565818 0 0 0-10.356364-2.932364 10.752 10.752 0 0 0-7.610182 7.749818 10.961455 10.961455 0 0 0 2.909091 10.519273l5.888 5.981091h-8.354909a10.821818 10.821818 0 0 0 0 21.643636h8.378182l-5.911273 5.981091a10.891636 10.891636 0 0 0-3.234909 10.658909 10.705455 10.705455 0 0 0 7.773091 7.889455 10.565818 10.565818 0 0 0 10.519273-3.281455l5.934545-6.004363v8.517818a10.658909 10.658909 0 1 0 21.317819 0v-8.494546l5.911272 5.981091a10.565818 10.565818 0 0 0 10.519273 3.281455 10.728727 10.728727 0 0 0 7.796364-7.889455 10.961455 10.961455 0 0 0-3.234909-10.658909l-5.911273-5.981091h8.378182a10.821818 10.821818 0 0 0 0-21.643636h-8.354909l5.888-5.981091a10.891636 10.891636 0 0 0-4.654546-18.269091 10.612364 10.612364 0 0 0-10.379636 2.932364l-5.911273 6.004363v-8.494545a10.658909 10.658909 0 1 0-21.317818 0z m-170.542545 0v8.517818l-5.934546-6.004363a10.565818 10.565818 0 0 0-10.356363-2.932364 10.752 10.752 0 0 0-7.610182 7.749818 10.914909 10.914909 0 0 0 2.932364 10.519273l5.888 5.981091h-8.354909a10.821818 10.821818 0 0 0 0 21.643636h8.378181l-5.911272 5.981091a10.868364 10.868364 0 0 0-3.234909 10.658909 10.705455 10.705455 0 0 0 7.77309 7.889455 10.565818 10.565818 0 0 0 10.519273-3.281455l5.934546-6.004363v8.517818a10.658909 10.658909 0 1 0 21.317818 0v-8.517818l5.934545 6.004363a10.519273 10.519273 0 0 0 10.519273 3.281455 10.705455 10.705455 0 0 0 7.773091-7.889455 10.914909 10.914909 0 0 0-3.258182-10.658909l-5.911273-5.981091h8.378182a10.821818 10.821818 0 0 0 0-21.643636h-8.354909l5.888-5.981091a10.914909 10.914909 0 0 0 2.932364-10.519273 10.775273 10.775273 0 0 0-7.610182-7.749818 10.565818 10.565818 0 0 0-10.356364 2.932364l-5.934545 6.004363v-8.517818a10.658909 10.658909 0 1 0-21.317818 0z m-170.542546 0v8.517818l-5.934545-6.004363a10.589091 10.589091 0 0 0-10.379636-2.932364 10.775273 10.775273 0 0 0-7.610182 7.749818 10.914909 10.914909 0 0 0 2.932363 10.519273l5.888 5.981091h-8.354909a10.821818 10.821818 0 0 0 0 21.643636h8.378182l-5.911273 5.981091a10.914909 10.914909 0 0 0-3.258181 10.658909 10.705455 10.705455 0 0 0 7.773091 7.889455 10.542545 10.542545 0 0 0 10.519272-3.281455l5.934546-6.004363v8.517818a10.658909 10.658909 0 1 0 21.317818 0v-8.517818l5.934545 6.004363a10.565818 10.565818 0 0 0 10.519273 3.281455 10.705455 10.705455 0 0 0 7.773091-7.889455 10.914909 10.914909 0 0 0-3.258182-10.658909l-5.911273-5.981091h8.401455a10.821818 10.821818 0 0 0 0-21.643636h-8.378182l5.888-5.981091a10.914909 10.914909 0 0 0 2.932364-10.519273 10.752 10.752 0 0 0-7.610182-7.749818 10.589091 10.589091 0 0 0-10.379636 2.932364l-5.934546 6.004363v-8.517818a10.658909 10.658909 0 1 0-21.317818 0z m-170.542545 0v8.517818l-5.934545-6.004363a10.565818 10.565818 0 0 0-10.356364-2.932364 10.891636 10.891636 0 0 0-4.654546 18.269091l5.888 5.981091h-8.354909a10.821818 10.821818 0 0 0 0 21.643636h8.378182l-5.911273 5.981091a10.914909 10.914909 0 0 0-3.258181 10.658909 10.775273 10.775273 0 0 0 7.796363 7.889455 10.496 10.496 0 0 0 10.496-3.281455l5.934546-6.004363v8.517818a10.658909 10.658909 0 1 0 21.317818 0v-8.517818l5.934545 6.004363a10.565818 10.565818 0 0 0 10.519273 3.281455 10.705455 10.705455 0 0 0 7.773091-7.889455 10.868364 10.868364 0 0 0-3.234909-10.658909l-5.911273-5.981091h8.378182a10.821818 10.821818 0 0 0 0-21.643636h-8.354909l5.888-5.981091a10.914909 10.914909 0 0 0 2.932364-10.519273 10.752 10.752 0 0 0-7.610182-7.749818 10.565818 10.565818 0 0 0-10.356364 2.932364l-5.934545 6.004363v-8.517818a10.658909 10.658909 0 1 0-21.317819 0z m-170.519273 0v8.517818l-5.934545-6.004363a10.565818 10.565818 0 0 0-14.964364 0.162909 10.938182 10.938182 0 0 0 0 15.173818l5.888 5.981091h-8.354909a10.821818 10.821818 0 0 0 0 21.643636h8.378182l-5.911273 5.981091a10.938182 10.938182 0 0 0 0.418909 14.871273 10.542545 10.542545 0 0 0 14.638546 0.395636l5.934545-6.004363v8.517818a10.658909 10.658909 0 1 0 21.294546 0v-8.517818l5.934545 6.004363a10.542545 10.542545 0 0 0 14.638546-0.395636 10.938182 10.938182 0 0 0 0.418909-14.871273l-5.911273-5.981091h8.378182a10.821818 10.821818 0 0 0 0-21.643636h-8.354909l5.888-5.981091a10.961455 10.961455 0 0 0 0-15.173818 10.565818 10.565818 0 0 0-14.964364-0.162909l-5.934545 6.004363v-8.517818a10.658909 10.658909 0 1 0-21.294546 0zM0.797324 390.004364a230.213818 230.213818 0 0 0 188.299636 247.179636 339.549091 339.549091 0 0 0 645.538909 0 231.168 231.168 0 0 0-38.516364-458.472727H227.310778a228.724364 228.724364 0 0 0-226.466909 211.293091z m268.962909 219.182545l-16.290909-48.663273-49.943273-8.657454a144.546909 144.546909 0 0 1 24.203636-286.510546h568.482909a144.453818 144.453818 0 0 1 24.203637 286.510546l-49.966546 8.657454-16.290909 48.663273a254.696727 254.696727 0 0 1-484.235636 0z"  horiz-adv-x="1024" />

    
    <glyph glyph-name="pm25" unicode="&#58908;" d="M118.528 506.88c0-48.896 39.8336-89.6 87.6032-89.6S293.7856 458.1888 293.7856 506.88c7.9872 57.0368-39.8336 89.6-87.6544 89.6S118.528 555.9808 118.528 506.88z m833.024 208.4864C919.7056 715.5712 896 691.2 896 666.6752c7.9872-24.4224 31.8464-48.8448 55.7568-48.8448 31.8976 0 55.808 24.4224 55.808 48.8448s-24.1152 48.896-56.0128 48.896z m-243.1488-40.3456c47.8208 0 87.6544 40.96 87.6544 89.6s-39.8336 89.6-87.6544 89.6-87.6032-40.96-87.6032-89.6c-7.9872-48.64 31.8464-89.3952 87.6032-89.3952z m-365.056-24.4224c39.8336 0 79.6672 32.5632 79.6672 73.3184s-31.8976 73.5232-79.6672 73.5232c-39.8336 0-79.6672-32.6144-79.6672-73.3184s31.8464-73.3184 79.6672-73.3184zM738.2016 440.32c0-40.96 31.8976-73.3184 79.6672-73.3184 39.8336 0 79.6672 32.6144 79.6672 73.3184s-31.8464 73.3184-79.6672 73.3184C778.24 513.7408 738.2016 481.28 738.2016 440.32z m-197.7856 6.7072c39.8336 0 63.744 32.5632 63.744 65.1776s-31.8464 65.1264-63.744 65.1264c-39.8336 0-63.744-32.5632-63.744-65.1264s31.8976-65.0752 63.744-65.0752z m393.1648-139.3664c-8.5504 0-17.152 0-21.4016-4.352-171.52-122.4704-325.9392-35.0208-330.1888-30.72C260.4032 474.0096 46.08 259.68640000000005 46.08 259.68640000000005a22.8864 22.8864 0 0 1-8.5504-17.5104A33.1264 33.1264 0 0 1 46.08 224.66560000000004c8.6016-13.1072 25.6-8.7552 38.6048 0 4.3008 8.7552 180.0704 179.2 463.104 4.352 4.3008-4.352 72.9088-43.7248 171.52-43.7248 64.3072 0 145.7664 17.5104 227.2768 74.3936a32.9728 32.9728 0 0 1 4.2496 39.3216 21.9648 21.9648 0 0 1-17.2544 8.7552zM88.0128 715.9295999999999a64.4608 64.4608 0 0 1 63.744 65.1264A64.4608 64.4608 0 0 1 88.064 846.336 64.512 64.512 0 0 1 24.32 781.1584a64.4096 64.4096 0 0 1 63.6928-65.2288z m60.0064-589.568H75.776v-209.92h49.5616v69.5296h24.064c43.4688 0 81.408 22.0672 81.408 72.0384 0 51.968-37.376 68.352-82.7904 68.352zM146.8928 25.600000000000023h-21.5552v60.928h20.224c23.808 0 37.0688-7.3216 37.0688-28.5184S171.008 25.600000000000023 146.8928 25.600000000000023z m229.3248 10.24c-3.8912-12.1344-7.2192-25.6-11.3664-38.4H363.52c-3.84 13.0048-7.168 26.2656-11.3152 38.4l-32.6656 90.6752H266.24v-209.92h44.032V-11.775999999999954a707.2768 707.2768 0 0 1-6.3488 72.9088h1.1264l16.5888-50.2784 27.9552-76.8h27.136l27.6992 76.8 17.152 50.2784h1.1264a707.2768 707.2768 0 0 1-6.3488-72.9088v-71.9872h45.1072v209.92H407.7568zM568.32-44.23680000000002c31.5904 32.4608 62.0032 72.2944 62.0032 108.4416 0 40.1408-27.648 66.0992-67.5328 66.0992-29.3376 0-48.1792-10.7008-68.4032-32.4608l26.88-27.136c9.6768 10.752 20.48 20.48 34.8672 20.48 16.3328 0 26.88-10.24 26.88-29.696 0-30.72-34.6112-68.608-86.1184-116.3776v-28.7744h142.8992v42.3424h-37.9904a282.1632 282.1632 0 0 1-33.4848-2.9184z m134.2976 18.944a31.2832 31.2832 0 1 1 29.3376-31.0784 29.6448 29.6448 0 0 1-29.5936 31.0784z m137.6256 78.4896a50.7904 50.7904 0 0 1-21.2992-4.2496l3.0208 35.84h73.3696v41.7792h-115.712l-5.12-103.936 21.5552-14.3872c12.2368 7.8848 17.7664 10.24 29.0816 10.24 17.7664 0 30.208-11.3152 30.208-32.4608s-12.4416-32.768-32.4096-32.768c-16.3328 0-30.72 8.7552-42.3424 20.0192l-22.8352-31.8976a97.28 97.28 0 0 1 71.9872-29.1328c39.5776 0 74.496 27.392 74.496 74.5984 0 45.4656-29.3888 66.3552-64.256 66.3552z"  horiz-adv-x="1024" />

    
    <glyph glyph-name="pm10" unicode="&#58911;" d="M118.528 508.4672c0-48.896 39.8336-89.6512 87.6032-89.6512s87.6544 40.96 87.6544 89.6512c7.9872 57.0368-39.8336 89.6-87.6544 89.6s-87.6032-40.704-87.6032-89.6zM951.6032 716.8c-31.8976 0-55.808-24.4736-55.808-48.896 7.9872-24.4224 31.8976-48.896 55.808-48.896 31.8464 0 55.7568 24.4736 55.7568 48.896S983.4496 716.8 951.6032 716.8z m-243.2-40.3456c47.8208 0 87.6544 40.96 87.6544 89.6s-39.8336 89.6-87.6544 89.6-87.6544-40.96-87.6544-89.6c-7.936-48.7424 31.8976-89.4464 87.6544-89.4464z m-365.1072-24.32c39.8848 0 79.6672 32.6144 79.6672 73.3184S391.1168 798.72 343.296 798.72c-39.8336 0-79.6672-32.5632-79.6672-73.3184s31.8976-73.2672 79.6672-73.2672z m394.9056-210.3296c0-40.96 31.8976-73.3184 79.6672-73.3184 39.8336 0 79.6672 32.6144 79.6672 73.3184s-31.8464 73.3184-79.6672 73.3184c-39.6288 0-79.6672-32.5632-79.6672-73.3184z m-197.7856 6.656c39.8336 0 63.744 32.8192 63.744 65.1776S572.3136 578.56 540.416 578.56c-39.8336 0-63.744-32.3072-63.744-64.9216s31.8976-65.1776 63.744-65.1776z m393.1648-139.3152c-8.5504 0-17.152 0-21.4016-4.4032-171.52-122.4704-325.888-34.9696-330.1888-30.72C260.4032 475.3408 46.08 261.12 46.08 261.12a22.784 22.784 0 0 1-8.5504-17.5104A33.1776 33.1776 0 0 1 46.08 226.048c8.6016-13.1584 25.6-8.7552 38.6048 0 4.3008 8.7552 180.0704 179.2 463.104 4.352 4.3008-4.352 72.9088-43.7248 171.52-43.7248 64.3072 0 145.7664 17.4592 227.2256 74.3424a32.9728 32.9728 0 0 1 4.3008 39.3728 22.1696 22.1696 0 0 1-17.2544 8.7552zM88.0128 717.312a64.4096 64.4096 0 0 1 63.744 65.1264A64.512 64.512 0 0 1 88.064 847.7184 64.4608 64.4608 0 0 1 24.32 782.5408 64.4096 64.4096 0 0 1 88.0128 717.312z m126.0544-589.568H141.7728v-209.92h49.6128v69.5296h24.064c43.4688 0 81.408 22.016 81.408 72.0384 0.1024 51.968-37.376 68.352-82.7904 68.352z m-1.0752-100.5568h-21.6064v60.7232h20.224c23.808 0 37.0688-7.3728 37.0688-28.5184s-11.6224-32.2048-35.6864-32.2048z m229.2736 9.8816c-3.8912-12.1344-7.2192-25.6-11.3664-38.4h-1.3824c-3.8912 12.9536-7.2192 26.2656-11.3664 38.4l-32.6656 90.6752H332.032v-209.92h44.288V-10.240000000000009a706.2528 706.2528 0 0 1-6.3488 72.8576h1.1264l16.5888-50.2784 27.9552-76.8h27.136l27.6992 76.8 17.152 50.2784h1.1264A706.2528 706.2528 0 0 1 482.4064-10.240000000000009v-72.192H527.36v209.92H473.8048zM665.6 127.74400000000003h-36.3008a136.8576 136.8576 0 0 0-51.2-18.944v-31.0784h37.9392v-119.4496h-43.7248v-40.704h130.0992v40.704H665.6z m138.24 3.9424c-43.4176 0-72.8064-35.584-72.8064-107.8784s29.3888-110.1824 72.8064-110.1824 73.1136 37.8368 73.1136 110.1824-29.5936 107.8784-73.1136 107.8784z m0-179.2c-14.6432 0-26.2656 13.568-26.2656 71.2192s11.6224 69.1712 26.2656 69.1712 26.624-11.8784 26.624-69.1712-11.9296-71.1168-26.624-71.1168z"  horiz-adv-x="1024" />

    
    <glyph glyph-name="fengxiang" unicode="&#58892;" d="M34.382267 261.43406a34.381275 34.381275 0 1 1 34.381275-34.381275 34.381275 34.381275 0 0 1-34.381275 34.381275zM34.382267 441.274576a34.381275 34.381275 0 1 1 34.381275-34.381275 34.381275 34.381275 0 0 1-34.381275 34.381275zM171.742073 552.352542H376.872662A171.741082 171.741082 0 1 1 198.354503 725.74657v-0.826473a34.381275 34.381275 0 0 1 68.597256 0 103.143826 103.143826 0 1 0 102.978531-103.143826h-198.353511a34.381275 34.381275 0 0 1 0-68.76255zM34.382267 621.115093a34.381275 34.381275 0 1 1 34.381275-34.381275 34.381275 34.381275 0 0 1-34.381275 34.381275zM649.443445 261.103471h-477.701372a34.381275 34.381275 0 0 1 0-68.762551h467.453108a125.954479 125.954479 0 1 0-125.95448-125.954479 34.381275 34.381275 0 0 1-68.597256 0v-0.991768A194.71703 194.71703 0 1 1 649.60874 261.268765zM794.902687 829.882163a229.098305 229.098305 0 0 1-226.949476-198.353511 31.240678 31.240678 0 0 1-0.991767-7.768846v-0.991767a34.381275 34.381275 0 0 1 68.597256 0 160.335755 160.335755 0 1 0 158.848103-181.824052H171.742073a34.381275 34.381275 0 0 1 0-68.76255h624.317676A229.098305 229.098305 0 0 1 794.902687 829.882163z"  horiz-adv-x="1024" />

    
    <glyph glyph-name="quanping" unicode="&#58901;" d="M629.557 504.028c17.329-17.319 47.028-17.319 66.815 0l168.302 165.814v-133.638c0-19.805 14.85-34.646 34.637-34.646h24.744c19.806 0 34.656 12.372 34.656 29.691l-0 245.017h-2.478l2.478 17.318c0 9.904-2.478 17.329-7.435 24.752-4.936 4.948-14.848 9.894-24.744 9.894h-17.327l-244.994 2.478c-19.805 0-34.654-17.329-34.654-34.646v-24.752c2.478-22.274 19.789-34.646 39.593-34.646h128.691l-165.805-165.816c-22.284-17.318-22.284-47.026-2.478-66.823v0 0zM394.441 266.443c-17.31 17.328-47.009 17.328-66.815 0l-168.301-165.806 0 131.168c0 19.788-14.832 34.638-34.637 34.638h-24.761c-19.788 0-34.638-12.372-34.638-29.698v-242.533h2.477l-2.477-17.328c0-9.893 2.477-17.31 7.416-24.744 4.956-4.956 14.868-9.894 24.761-9.894h17.328l244.993-2.477c19.823 0 34.655 17.328 34.655 34.638v24.76c-2.478 22.266-19.788 34.638-39.593 34.638h-128.691l168.284 165.824c17.327 17.328 17.327 47.027-0.001 66.815v0 0zM956.231-8.266v242.549c0 19.788-17.329 29.681-34.639 29.681h-24.759c-19.789 0-34.639-17.309-34.639-34.638v-131.168l-168.301 165.806c-17.308 17.329-47.009 17.329-66.815 0-17.327-17.309-17.327-47.009 0-66.814l168.284-165.806h-128.691c-19.787 0-37.115-12.388-39.593-34.654v-24.745c0-19.805 17.329-34.654 34.639-34.654l257.4 2.478c9.893 0 17.31 2.477 24.744 9.893 4.955 4.956 7.415 14.85 7.415 24.745l4.955 17.327c-2.478 0 0 0 0 0v0 0zM228.636 736.665h128.691c19.805 0 37.115 12.373 39.593 34.646l-0 24.753c0 19.797-17.309 34.646-34.654 34.646l-262.338-2.478c-9.876 0-17.31-2.477-24.744-9.894-4.938-4.956-7.416-14.849-7.416-24.752l2.477-17.318h-2.477v-245.018c0-19.797 14.85-29.691 34.638-29.691h24.744c19.822 0 34.654 14.841 34.654 34.646l-0 133.639 168.284-165.814c17.345-17.319 47.044-17.319 66.832 0 17.329 17.328 17.329 47.026 0 66.823l-168.284 165.814zM228.636 736.665z"  horiz-adv-x="1024" />

    
    <glyph glyph-name="error" unicode="&#58881;" d="M1005.54319-109.42499999999995a62.993 62.993 0 0 0-88.845 0L18.40219 788.87a62.8 62.8 0 0 0 88.846 88.846l898.392-898.392a62.896 62.896 0 0 0-0.097-88.75zM1005.54319 877.62a62.993 62.993 0 0 0 0-88.846l-898.295-898.296a62.8 62.8 0 1 0-88.846 88.846L916.79419 877.716a62.896 62.896 0 0 0 88.75-0.097z"  horiz-adv-x="1024" />

    
    <glyph glyph-name="quanping2" unicode="&#58882;" d="M632 733h198.9c17.6 0 32-14.4 32-32v-197h64V701c0 52.9-43.1 96-96 96H632v-64zM161.1 504V701c0 17.6 14.4 32 32 32H392V797H193.1c-52.9 0-96-43.1-96-96v-197h64zM392 35H193.1c-17.6 0-32 14.4-32 32V264h-64v-197c0-52.9 43.1-96 96-96H392v64z m470.9 229v-197c0-17.6-14.4-32-32-32H632v-64h198.9c52.9 0 96 43.1 96 96V264h-64z"  horiz-adv-x="1024" />

    
    <glyph glyph-name="jiantou" unicode="&#58883;" d="M857.3 240.748l-345.297 552.56-345.299-552.56h161.09V-25.31h368.417V240.748H857.3z"  horiz-adv-x="1024" />

    
    <glyph glyph-name="gaojing" unicode="&#58884;" d="M891.904-57.344H132.096c-35.328 0-67.072 18.432-84.48 48.64-17.408 30.72-17.408 67.072 0 97.792l379.904 657.92c17.408 30.72 49.152 48.64 84.48 48.64s67.072-18.432 84.48-48.64L976.384 89.6c17.408-30.72 17.408-67.072 0-97.792-17.92-30.72-49.664-49.152-84.48-49.152zM512 734.208c-6.144 0-22.016-1.536-31.232-17.92l-379.904-657.92c-9.216-16.384-3.072-30.72 0-36.352 3.072-5.632 12.288-17.92 31.232-17.92h759.296c18.944 0 28.16 12.8 31.232 17.92s9.216 19.968 0 36.352l-379.392 657.92c-9.216 16.384-25.088 17.92-31.232 17.92zM512 198.656c-16.896 0-30.72 13.824-30.72 30.72V515.072c0 16.896 13.824 30.72 30.72 30.72s30.72-13.824 30.72-30.72v-285.696c0-16.896-13.824-30.72-30.72-30.72zM481.28 129.024a30.72 30.72 0 1 1 61.44 0 30.72 30.72 0 1 1-61.44 0z"  horiz-adv-x="1024" />

    
    <glyph glyph-name="co2" unicode="&#58885;" d="M578.56 363.52c-6.144 5.12-13.312 7.168-20.992 7.168-5.632 0-10.752-1.536-15.872-4.096-4.608-2.56-9.216-6.656-12.288-11.776-3.584-5.12-6.144-11.776-8.192-19.968s-3.072-16.896-3.072-27.136 1.024-19.456 3.072-27.648 5.12-14.848 8.704-20.48 7.68-9.216 12.8-12.288c4.608-2.56 10.24-4.096 15.872-4.096 7.168 0 13.824 2.048 19.968 6.656s10.752 11.776 14.848 21.504c3.584 9.728 5.12 21.504 5.12 35.84 0 13.312-1.536 24.576-5.12 33.792s-8.704 17.408-14.848 22.528zM760.32 479.232c-20.992 0-41.472-4.096-60.416-11.264-9.728 112.64-98.816 201.216-207.36 201.216-105.472 0-192.512-82.944-206.336-190.976-6.144 0.512-11.776 1.024-17.92 1.024-99.328 0-179.712-84.992-179.712-189.952s77.824-190.464 176.64-190.464c1.536 0 8.704 0.512 11.264 0.512h-1.536 1.536l444.416-0.512c12.8 0 24.576 0.512 38.912 0.512 98.816 0 178.688 84.992 178.688 189.952 0.512 104.96-79.872 189.952-178.176 189.952zM466.432 256c-2.048-6.656-5.632-13.312-10.24-19.456s-10.752-11.264-17.92-15.36-15.872-6.144-25.6-6.144c-7.168 0-14.336 1.024-19.968 2.56s-11.776 4.608-16.384 8.192c-5.12 3.584-9.728 8.704-13.824 14.848-3.584 5.632-6.656 11.776-9.728 18.944s-4.608 14.336-6.144 22.016-2.048 16.384-2.048 25.088c0 14.336 1.536 27.136 5.12 38.4s8.192 20.992 14.336 29.184 13.312 14.336 21.504 18.432 16.896 6.144 26.112 6.144c11.264 0 21.504-3.072 30.208-8.704 8.704-5.632 15.872-12.8 20.48-21.504s7.168-16.384 7.168-24.064c0-4.096-1.024-7.68-3.584-10.752s-5.12-4.608-8.192-4.608c-3.584 0-6.144 1.024-8.192 3.072s-3.584 6.144-6.144 11.264c-3.584 8.704-8.192 15.36-13.312 19.968-5.12 4.608-11.264 6.656-18.432 6.656-11.776 0-20.992-5.632-27.648-16.896s-10.24-27.136-10.24-48.128c0-13.824 1.536-25.6 4.608-34.816s7.168-15.872 12.8-20.48 12.288-6.656 19.456-6.656c8.192 0 14.848 2.56 20.48 7.68s9.728 12.8 12.8 22.528c1.024 4.608 2.56 8.704 4.608 11.264s4.608 4.608 8.704 4.608c3.584 0 6.144-1.536 8.704-4.608 2.56-3.072 3.584-6.656 3.584-11.264 0.512-4.608-1.024-10.752-3.072-17.408z m155.648 13.824c-3.072-11.264-7.168-20.992-13.312-29.184-6.144-8.192-13.312-14.848-21.504-18.944-8.704-4.608-18.432-6.656-29.184-6.656s-20.992 2.048-29.696 6.656-15.872 10.752-21.504 18.944-10.24 17.92-13.312 29.696-4.608 24.064-4.608 37.376c0 13.824 1.536 26.112 4.608 37.888s7.68 20.992 13.312 29.184 12.8 14.336 21.504 18.432c8.192 4.096 17.92 6.144 28.672 6.144 14.848 0 27.136-3.584 37.376-11.264s18.432-18.432 23.552-31.744 8.192-30.208 8.192-48.64c0-14.336-1.536-26.624-4.096-37.888z m76.288-49.664c-1.024-1.536-3.072-2.56-5.632-2.56h-41.472c-2.56 0-5.12 1.024-6.656 3.072s-2.56 4.096-2.56 7.168c0 1.536 0.512 4.096 1.536 6.656s2.048 5.12 3.072 6.656c5.12 6.656 9.728 12.288 13.824 16.896 4.096 4.608 6.656 7.68 8.704 9.216 3.072 2.56 5.632 5.632 7.68 8.192 2.048 2.56 3.584 5.632 4.608 8.704s1.536 6.144 1.536 8.704c0 3.072-0.512 5.632-1.536 8.192-1.024 2.56-2.56 4.096-4.608 5.632-2.048 1.536-4.096 2.048-6.656 2.048-5.12 0-8.704-2.56-11.776-8.192-0.512-0.512-1.024-2.56-2.048-6.144s-2.048-5.632-3.072-7.168-2.56-2.56-5.12-2.56c-2.048 0-3.584 1.024-4.608 2.56-1.024 1.536-2.048 3.584-2.048 6.656 0 3.072 0.512 6.656 2.048 10.24s3.072 6.656 5.12 9.728 5.12 5.12 8.704 7.168c3.584 2.048 7.68 2.56 12.8 2.56 5.632 0 10.752-1.024 14.848-3.584 2.56-1.536 5.12-3.584 7.168-6.144s3.584-5.632 4.608-9.216 1.536-7.168 1.536-10.752c0-6.144-1.024-11.264-3.584-16.384-2.048-5.12-4.608-8.704-7.168-11.264s-6.656-7.168-12.288-12.8-9.728-10.752-11.776-13.824c-1.024-1.536-2.048-3.072-2.56-4.608h29.696c3.072 0 5.12-1.024 6.656-2.048s2.048-3.584 2.048-6.144c0.512-2.56 0-4.608-1.024-6.656z"  horiz-adv-x="1024" />

    
    <glyph glyph-name="fengsu" unicode="&#58886;" d="M517.698 375.57000000000005c1.493 27.587-7.203 51.309-25.658 70.816-28.289 30.048-78.98 47.176-138.901 47.176-49.38 0-98.313-11.946-134.513-32.768-5.708-3.342-11.332-7.029-18.012-11.862 0 0-23.632-13.353-53.854-52.54-40.854-53.151-61.326-115.972-52.896-164.556 5.36-30.751 21.967-55.702 48.146-72.221 21.353-13.53 41.21-20.034 60.713-20.034 46.037 0 80.214 36.815 116.499 75.735 25.569 27.409 51.925 55.698 84.609 74.675 33.825 19.597 57.375 31.019 73.007 38.574 31.105 15.112 39.448 19.237 40.855 47l0.005 0.005z m245.827-132.315c-36.55 8.348-74.242 17.134-106.926 35.846-33.825 19.592-55.525 34.177-69.845 43.932-18.629 12.563-28.029 18.803-39.1 18.803-7.115 0-13.701-2.636-22.14-6.945-33.736-17.134-52.098-47.708-53.155-88.207-1.931-74.152 57.108-171.85 129.065-213.408 5.185-2.984 7.731-3.605 17.482-8.876 9.754-5.268 68.44-20.294 68.44-20.294 15.202-2.457 30.664-3.598 45.953-3.598 75.028 0 163.768 30.658 167.278 117.025 3.517 93.393-64.747 109.033-137.052 125.722zM548.801 496.552c0-39.1-1.756-65.19-3.075-82.502-2.457-34.525-3.078-43.837 20.294-58.951 16.255-10.54 33.655-15.993 51.751-15.993 88.381 0 171.586 132.14 171.586 233.703 0 12.389-1.231 25.57-3.96 40.33 0 0-2.28 23.189-22.929 73.27C736.905 748.525 680.5 800.976 615.922 800.976c-16.78 0-33.387-4.219-49.025-12.389-82.674-43.49-62.114-110.524-40.411-181.428 10.98-35.842 22.315-72.917 22.315-110.606z m0 0"  horiz-adv-x="1024" />

    
    <glyph glyph-name="shezhi" unicode="&#58887;" d="M881 384c0 52.4 32.9 96.8 79 114.5-11 43.2-28 83.9-50.2 121.3C864.6 599.7 810 607.9 773 645c-37 37-45.2 91.7-25.1 136.8C710.4 804 669.7 821 626.5 832c-17.8-46.1-62.2-79-114.5-79-52.4 0-96.8 32.9-114.5 79-43.2-11-83.9-28-121.3-50.2 20.1-45.2 11.9-99.8-25.1-136.8-37-37-91.7-45.2-136.8-25.2C92 582.4 75 541.7 64 498.5c46.1-17.8 79-62.2 79-114.5 0-52.4-32.9-96.8-79-114.5 11-43.2 28-83.9 50.2-121.3C159.4 168.3 214 160.1 251 123c37-37 45.2-91.7 25.1-136.8C313.6-36 354.3-53 397.5-64c17.8 46.1 62.2 79 114.5 79 52.4 0 96.8-32.9 114.5-79 43.2 11 83.9 28 121.3 50.2-20.1 45.2-11.9 99.8 25.1 136.8 37 37 91.7 45.2 136.8 25.2C932 185.6 949 226.3 960 269.5c-46.1 17.7-79 62.1-79 114.5zM512 261c-67.9 0-123 55.1-123 123s55.1 123 123 123 123-55.1 123-123-55.1-123-123-123z"  horiz-adv-x="1024" />

    
    <glyph glyph-name="wenduji" unicode="&#58888;" d="M550.821 278.09299999999996l-9.139 4.043V622.121c0 14.23-18.134 26.25-39.598 26.25-21.466 0-39.6-12.022-39.6-26.25v-339.986l-9.139-4.043c-43.642-19.313-71.84-62.615-71.84-110.318 0-66.488 54.091-120.58 120.579-120.58s120.58 54.092 120.58 120.58c0 47.704-28.2 91.006-71.843 110.319zM674.393 350.404l-4.82 4.545V720.725c0 35.766-18.654 70.4-51.177 95.021-31.302 23.698-72.61 36.75-116.312 36.75-43.704 0-85.011-13.052-116.315-36.75-32.522-24.62-51.175-59.254-51.175-95.021v-365.777l-4.82-4.545c-50.063-47.194-78.776-113.76-78.776-182.629 0-67.067 26.117-130.12 73.542-177.545 47.424-47.424 110.478-73.541 177.545-73.541s130.121 26.117 177.546 73.541 73.541 110.478 73.541 177.545c0 68.869-28.714 135.435-78.779 182.63z m-172.31-392.783c-115.877 0-210.151 94.274-210.151 210.152 0 62.793 27.768 121.81 76.185 161.919l7.41 6.138V720.7239999999999c0 24.67 14.48 48.65 39.727 65.787 23.796 16.153 54.632 25.049 86.829 25.049 32.195 0 63.032-8.896 86.827-25.049 25.246-17.138 39.727-41.116 39.727-65.787V335.83000000000004l7.409-6.138c48.419-40.11 76.19-99.127 76.19-161.92 0.002-115.877-94.273-210.152-210.152-210.152zM717.925 694.231h39.045c8.858 0 16.038 5.822 16.038 13.005s-7.18 13.005-16.038 13.005h-39.045c-8.856 0-16.036-5.822-16.036-13.005s7.179-13.005 16.036-13.005zM756.97 663.565h-39.045c-8.856 0-16.036-5.823-16.036-13.004s7.18-13.005 16.036-13.005h39.045c8.858 0 16.038 5.822 16.038 13.005s-7.18 13.004-16.038 13.004zM756.97 606.89h-39.045c-8.856 0-16.036-5.822-16.036-13.005s7.18-13.005 16.036-13.005h39.045c8.858 0 16.038 5.822 16.038 13.005s-7.18 13.005-16.038 13.005zM756.97 550.2139999999999h-39.045c-8.856 0-16.036-5.821-16.036-13.004s7.18-13.005 16.036-13.005h39.045c8.858 0 16.038 5.822 16.038 13.005s-7.18 13.004-16.038 13.004zM756.97 493.539h-39.045c-8.856 0-16.036-5.823-16.036-13.005s7.18-13.004 16.036-13.004h39.045c8.858 0 16.038 5.822 16.038 13.004 0 7.182-7.18 13.005-16.038 13.005zM756.97 436.863h-39.045c-8.856 0-16.036-5.821-16.036-13.004s7.18-13.005 16.036-13.005h39.045c8.858 0 16.038 5.822 16.038 13.005 0 7.183-7.18 13.004-16.038 13.004z"  horiz-adv-x="1025" />

    
    <glyph glyph-name="yongshui" unicode="&#58889;" d="M957.908 382.352c0-246.636-199.938-446.575-446.575-446.575S64.759 135.715 64.759 382.352 264.697 828.927 511.333 828.927s446.575-199.939 446.575-446.575zM511.333 659.228s-297.24-553.753 0-553.753 0 553.753 0 553.753z"  horiz-adv-x="1024" />

    
    <glyph glyph-name="turangshidu" unicode="&#58890;" d="M525.834 213.592c0.13 0 0.647 0.259 0.905 0.388 0.388 0.13 0.776 0.258 1.164 0.517-0.13 0 0 0 0.388 0.13 1.034 0.258 2.456 0.516 3.62 0.775 21.075 1.81 41.503 7.111 61.414 13.834 27.928 1.035 67.62-4.654 138.344-22.884 153.083-39.435 160.452 65.68 276.945 29.22 9.956-4.138 19.653-8.275 28.962-12.154l7.11-2.974s-6.205-12.541-9.567-18.747c-1.94-3.62-4.137-7.37-6.077-10.99l-5.947-10.343c-2.198-3.62-4.267-7.24-6.594-10.732-2.457-3.878-4.913-7.757-7.499-11.636l-10.473-15.515c-2.456-3.491-4.913-7.111-7.499-10.473-2.586-3.362-4.913-6.723-7.499-9.826-2.586-3.362-5.171-6.723-7.887-9.956-2.456-3.103-4.654-6.077-7.24-9.05a420.945 420.945 0 0 0-13.964-16.291c-2.585-2.845-5.171-5.56-7.499-8.146l-9.18-9.567c-2.715-2.845-5.3-5.43-8.016-8.146-4.008-4.008-8.016-7.757-12.153-11.636-3.362-3.103-6.723-6.077-10.085-9.18-4.008-3.62-8.016-7.111-12.153-10.473-2.845-2.327-5.43-4.525-8.275-6.852-4.008-3.232-8.016-6.336-12.024-9.439-2.586-1.81-4.914-3.878-7.5-5.688-6.076-4.526-12.282-8.922-18.488-13.188-2.586-1.681-5.043-3.362-7.629-5.043-4.525-3.103-9.05-5.947-13.575-8.792-2.716-1.551-5.301-3.361-8.017-4.913-6.076-3.62-12.412-7.24-18.618-10.731l-5.947-3.232c-5.948-3.233-12.024-6.206-18.101-9.31-2.586-1.163-5.172-2.585-7.887-3.749-5.56-2.586-11.12-5.042-16.679-7.499-2.069-1.034-4.267-2.069-6.594-2.974-7.499-3.103-15.127-6.076-22.626-8.92-2.327-0.777-4.396-1.552-6.723-2.458a979.52 979.52 0 0 0-17.972-6.076l-7.628-2.457c-8.016-2.456-16.033-4.654-24.178-6.852l-1.552-0.388a706.71 706.71 0 0 0-23.79-5.43c-2.585-0.518-4.913-0.906-7.498-1.423-6.724-1.293-13.318-2.586-20.17-3.62-1.94-0.259-4.008-0.646-5.948-0.905-8.533-1.293-17.066-2.457-25.729-3.362-1.94-0.129-4.137-0.388-6.077-0.517a549.866 549.866 0 0 0-20.945-1.551l-7.628-0.388c-8.792-0.388-17.714-0.647-26.635-0.647-9.05 0-17.842 0.259-26.763 0.647-2.716 0.13-5.172 0.258-7.758 0.388a542.656 542.656 0 0 0-20.428 1.551c-2.328 0.259-4.526 0.388-6.853 0.647-8.662 0.905-17.196 1.94-25.73 3.361-1.81 0.259-3.62 0.647-5.43 0.905-6.981 1.035-13.704 2.328-20.557 3.62l-8.016 1.552a514.643 514.643 0 0 0-20.3 4.655l-5.17 1.163c-8.146 2.198-16.162 4.396-24.05 6.853l-7.628 2.456a659.65 659.65 0 0 0-17.066 5.69c-2.715 0.904-5.43 1.81-8.146 2.973-7.24 2.844-14.351 5.56-21.462 8.533-2.07 0.905-4.138 1.681-6.077 2.715-5.818 2.586-11.766 5.172-17.584 8.017-3.103 1.293-5.947 2.844-8.921 4.266-4.784 2.328-9.439 4.784-14.093 7.24-2.974 1.423-5.689 2.974-8.533 4.526a1536.23 1536.23 0 0 0-19.653 11.378c-2.974 1.68-5.818 3.62-8.792 5.43-4.008 2.586-8.016 5.042-11.895 7.628a127.661 127.661 0 0 0-9.697 6.594c-3.879 2.586-7.499 5.172-11.248 7.887l-13.964 10.473c-3.879 2.974-7.758 5.947-11.636 9.05l-9.956 8.404c-2.844 2.457-5.43 4.784-8.275 7.24-3.49 2.974-6.852 5.948-10.084 9.051a187.98 187.98 0 0 0-7.37 6.982 563.73 563.73 0 0 0-17.584 17.584c-2.069 2.198-4.267 4.267-6.206 6.594-3.49 3.75-6.723 7.37-9.956 11.12l-5.56 6.334c-11.248 12.93-21.591 26.247-31.547 40.081-1.422 1.94-2.973 4.008-4.266 5.948a481.185 481.185 0 0 0-9.05 13.317c-1.035 1.551-2.07 3.361-3.233 4.913-5.948 9.31-11.766 18.747-17.196 28.444-0.647 1.035-1.164 2.198-1.81 3.233-2.715 4.784-5.301 9.697-7.887 14.61-1.034 2.069-1.94 4.137-3.103 6.077L0 230.917c91.41 30.643 80.679-21.592 196.137-31.418 140.283-12.154 218.893-9.18 268.8-1.552 0 0 60.768 15.516 59.863 15.516 0.259 0 0.517 0.129 0.776 0.258l0.258-0.13z m172.219 262.594c0-90.376-73.18-163.556-163.556-163.556s-163.556 73.18-163.556 163.556S470.885 735.16 534.497 844.283c58.958-109.123 163.556-277.721 163.556-368.097z m-316.38 171.313c0-39.434-31.936-71.37-71.37-71.37-39.434 0-71.37 31.936-71.37 71.37 0 39.434 43.572 112.873 71.37 160.453 25.859-47.58 71.37-121.148 71.37-160.453z m393.955 45.511c0-19.394-15.644-35.038-34.909-35.038s-34.909 15.644-34.909 35.038c0 19.265 21.333 55.337 34.91 78.61 12.54-23.273 34.908-59.345 34.908-78.61zM347.281 366.287c0-12.024-9.826-21.85-21.85-21.85-12.025 0-21.851 9.696-21.851 21.85 0 12.024 13.446 34.65 21.85 49.131 7.887-14.48 21.85-37.107 21.85-49.131z"  horiz-adv-x="1044" />

    
    <glyph glyph-name="yongdianzonglan" unicode="&#58891;" d="M512.128-64.064a448.576 448.576 0 0 0-448 448 448.576 448.576 0 0 0 448 448 448.512 448.512 0 0 0 448-448 448.576 448.576 0 0 0-448-448z m-46.72 391.68L397.184 141.44a24.96 24.96 0 0 1-0.96-3.392 24.448 24.448 0 0 1 6.08-19.2 25.6 25.6 0 0 1 18.88-7.616 41.792 41.792 0 0 1 14.784 2.944 19.584 19.584 0 0 1 6.4 4.032l311.104 310.656 0.64 0.768 0.64 0.768 0.576 0.768a23.808 23.808 0 0 1 2.688 24 23.168 23.168 0 0 1-20.416 12.096h-1.344l-137.792 0.96 35.52 166.08a5.248 5.248 0 0 1 0 1.536 28.224 28.224 0 0 1-6.4 24.512 25.6 25.6 0 0 1-18.88 7.616 39.808 39.808 0 0 1-18.112-4.672 18.112 18.112 0 0 1-4.928-3.84L320.512 363.328a6.976 6.976 0 0 1-1.152-1.344 21.632 21.632 0 0 1-1.984-23.104 24.896 24.896 0 0 1 23.552-11.456h2.24z"  horiz-adv-x="1024" />

    


  </font>
</defs>
</svg>
